{
   "accessors" : [
      {
         "bufferView" : 0,
         "byteOffset" : 0,
         "componentType" : 5123,
         "count" : 2202,
         "max" : [ 1407 ],
         "min" : [ 0 ],
         "name" : "buffer-0-group-0-mesh-0-indices",
         "type" : "SCALAR"
      },
      {
         "bufferView" : 2,
         "byteOffset" : 0,
         "componentType" : 5126,
         "count" : 1408,
         "max" : [ 1.019984006881714, 3.264641046524048, 3.462157011032104 ],
         "min" : [ -0.7168229818344116, -0.001607000012882054, -2.93201208114624 ],
         "name" : "buffer-0-group-0-mesh-0-position",
         "type" : "VEC3"
      },
      {
         "bufferView" : 2,
         "byteOffset" : 16896,
         "componentType" : 5126,
         "count" : 1408,
         "max" : [ 1, 1, 1 ],
         "min" : [ -1, -0.9986000061035156, -1 ],
         "name" : "buffer-0-group-0-mesh-0-normal",
         "type" : "VEC3"
      },
      {
         "bufferView" : 1,
         "byteOffset" : 0,
         "componentType" : 5126,
         "count" : 1408,
         "max" : [ 0.9884999990463257, 0 ],
         "min" : [ 0, -0.9948999881744385 ],
         "name" : "buffer-0-group-0-mesh-0-texcoord",
         "type" : "VEC2"
      },
      {
         "bufferView" : 0,
         "byteOffset" : 4404,
         "componentType" : 5123,
         "count" : 228,
         "max" : [ 151 ],
         "min" : [ 0 ],
         "name" : "buffer-0-group-1-mesh-0-indices",
         "type" : "SCALAR"
      },
      {
         "bufferView" : 2,
         "byteOffset" : 33792,
         "componentType" : 5126,
         "count" : 152,
         "max" : [ 0.4551140069961548, 1.582831978797913, 0 ],
         "min" : [ -0.1519529968500137, 0, -2.241106986999512 ],
         "name" : "buffer-0-group-1-mesh-0-position",
         "type" : "VEC3"
      },
      {
         "bufferView" : 2,
         "byteOffset" : 35616,
         "componentType" : 5126,
         "count" : 152,
         "max" : [ 0.9876999855041504, 0.1782000064849854, 0.9641000032424927 ],
         "min" : [ -0.9876999855041504, -0.9721000194549561, -0.9176999926567078 ],
         "name" : "buffer-0-group-1-mesh-0-normal",
         "type" : "VEC3"
      },
      {
         "bufferView" : 1,
         "byteOffset" : 11264,
         "componentType" : 5126,
         "count" : 152,
         "max" : [ 0.9226999878883362, 0 ],
         "min" : [ 0, -0.5690000057220459 ],
         "name" : "buffer-0-group-1-mesh-0-texcoord",
         "type" : "VEC2"
      },
      {
         "bufferView" : 0,
         "byteOffset" : 4860,
         "componentType" : 5123,
         "count" : 60,
         "max" : [ 43 ],
         "min" : [ 0 ],
         "name" : "buffer-0-group-2-mesh-0-indices",
         "type" : "SCALAR"
      },
      {
         "bufferView" : 2,
         "byteOffset" : 37440,
         "componentType" : 5126,
         "count" : 44,
         "max" : [ 0.1873040050268173, 1.780753970146179, 0 ],
         "min" : [ 0, 0, -2.901087045669556 ],
         "name" : "buffer-0-group-2-mesh-0-position",
         "type" : "VEC3"
      },
      {
         "bufferView" : 2,
         "byteOffset" : 37968,
         "componentType" : 5126,
         "count" : 44,
         "max" : [ 0.9965000152587891, 0.1562999933958054, 0.7623000144958496 ],
         "min" : [ -0.9965000152587891, -0.2167000025510788, -0.8424999713897705 ],
         "name" : "buffer-0-group-2-mesh-0-normal",
         "type" : "VEC3"
      },
      {
         "bufferView" : 1,
         "byteOffset" : 12480,
         "componentType" : 5126,
         "count" : 44,
         "max" : [ 0.7480999827384949, 0 ],
         "min" : [ 0, -0.3355999886989594 ],
         "name" : "buffer-0-group-2-mesh-0-texcoord",
         "type" : "VEC2"
      },
      {
         "bufferView" : 0,
         "byteOffset" : 4980,
         "componentType" : 5123,
         "count" : 315,
         "max" : [ 192 ],
         "min" : [ 0 ],
         "name" : "buffer-0-group-3-mesh-0-indices",
         "type" : "SCALAR"
      },
      {
         "bufferView" : 2,
         "byteOffset" : 38496,
         "componentType" : 5126,
         "count" : 193,
         "max" : [ 1.081431031227112, 3.428900957107544, 2.708372116088867 ],
         "min" : [ -0.7782700061798096, -0.00268599996343255, -2.70862603187561 ],
         "name" : "buffer-0-group-3-mesh-0-position",
         "type" : "VEC3"
      },
      {
         "bufferView" : 2,
         "byteOffset" : 40812,
         "componentType" : 5126,
         "count" : 193,
         "max" : [ 0.9986000061035156, 0.977400004863739, 0.9997000098228455 ],
         "min" : [ -0.9993000030517578, -1, -0.9955000281333923 ],
         "name" : "buffer-0-group-3-mesh-0-normal",
         "type" : "VEC3"
      },
      {
         "bufferView" : 1,
         "byteOffset" : 12832,
         "componentType" : 5126,
         "count" : 193,
         "max" : [ 0.8909000158309937, 0 ],
         "min" : [ 0, -0.8543999791145325 ],
         "name" : "buffer-0-group-3-mesh-0-texcoord",
         "type" : "VEC2"
      },
      {
         "bufferView" : 0,
         "byteOffset" : 5610,
         "componentType" : 5123,
         "count" : 198,
         "max" : [ 129 ],
         "min" : [ 0 ],
         "name" : "buffer-0-group-4-mesh-0-indices",
         "type" : "SCALAR"
      },
      {
         "bufferView" : 2,
         "byteOffset" : 43128,
         "componentType" : 5126,
         "count" : 130,
         "max" : [ 1.002271056175232, 3.099024057388306, 3.563076019287109 ],
         "min" : [ -0.6991109848022461, 0, 0 ],
         "name" : "buffer-0-group-4-mesh-0-position",
         "type" : "VEC3"
      },
      {
         "bufferView" : 2,
         "byteOffset" : 44688,
         "componentType" : 5126,
         "count" : 130,
         "max" : [ 0.9801999926567078, 0.7791000008583069, 0.9922999739646912 ],
         "min" : [ -0.9801999926567078, -0.9517999887466431, -0.362500011920929 ],
         "name" : "buffer-0-group-4-mesh-0-normal",
         "type" : "VEC3"
      },
      {
         "bufferView" : 1,
         "byteOffset" : 14376,
         "componentType" : 5126,
         "count" : 130,
         "max" : [ 0.8389999866485596, 0 ],
         "min" : [ 0, -0.2736000120639801 ],
         "name" : "buffer-0-group-4-mesh-0-texcoord",
         "type" : "VEC2"
      }
   ],
   "asset" : {
      "generator" : "Obj2GltfConverter",
      "version" : "2.0"
   },
   "bufferViews" : [
      {
         "buffer" : 0,
         "byteLength" : 6006,
         "byteOffset" : 0,
         "byteStride" : 0,
         "name" : "buffer-0-bufferview-ushort",
         "target" : 34963
      },
      {
         "buffer" : 0,
         "byteLength" : 15416,
         "byteOffset" : 6008,
         "byteStride" : 8,
         "name" : "buffer-0-bufferview-vec2",
         "target" : 34962
      },
      {
         "buffer" : 0,
         "byteLength" : 46248,
         "byteOffset" : 21432,
         "byteStride" : 12,
         "name" : "buffer-0-bufferview-vec3",
         "target" : 34962
      },
      {
         "buffer" : 0,
         "byteLength" : 1,
         "byteOffset" : 0,
         "name" : "buffer-0-bufferview-vec4"
      }
   ],
   "buffers" : [
      {
         "byteLength" : 67680,
         "name" : "buffer-0",
         "uri" : "Cow expanded.bin"
      }
   ],
   "images" : [
      {
         "mimeType" : "image/png",
         "name" : "Material.003-image",
         "uri" : "Blender stuff/Initial Cow/Cow expanded 2.png"
      },
      {
         "mimeType" : "image/png",
         "name" : "Material.004-image",
         "uri" : "Blender stuff/Initial Cow/Cow expanded 2.png"
      },
      {
         "mimeType" : "image/png",
         "name" : "Material.005-image",
         "uri" : "Blender stuff/Initial Cow/Cow expanded 2.png"
      },
      {
         "mimeType" : "image/png",
         "name" : "Material.006-image",
         "uri" : "Blender stuff/Initial Cow/Cow expanded 2.png"
      },
      {
         "mimeType" : "image/png",
         "name" : "Material.007-image",
         "uri" : "Blender stuff/Initial Cow/Cow expanded 2.png"
      }
   ],
   "materials" : [
      {
         "alphaMode" : "OPAQUE",
         "doubleSided" : true,
         "name" : "Material.003",
         "pbrMetallicRoughness" : {
            "baseColorFactor" : [ 0.8045600000000001, 0.8045600000000001, 0.8045600000000001, 1 ],
            "baseColorTexture" : {
               "index" : 0,
               "texCoord" : 0
            },
            "metallicFactor" : 0,
            "roughnessFactor" : 0.8154116143514645
         }
      },
      {
         "alphaMode" : "OPAQUE",
         "doubleSided" : true,
         "name" : "Material.004",
         "pbrMetallicRoughness" : {
            "baseColorFactor" : [ 0.8, 0.192391, 0.252899, 1 ],
            "baseColorTexture" : {
               "index" : 1,
               "texCoord" : 0
            },
            "metallicFactor" : 0,
            "roughnessFactor" : 0.7448017359246658
         }
      },
      {
         "alphaMode" : "OPAQUE",
         "doubleSided" : true,
         "name" : "Material.005",
         "pbrMetallicRoughness" : {
            "baseColorFactor" : [ 0.168769, 0.052449, 0.004056, 1 ],
            "baseColorTexture" : {
               "index" : 2,
               "texCoord" : 0
            },
            "metallicFactor" : 0,
            "roughnessFactor" : 0.7448017359246658
         }
      },
      {
         "alphaMode" : "OPAQUE",
         "doubleSided" : true,
         "name" : "Material.006",
         "pbrMetallicRoughness" : {
            "baseColorFactor" : [ 0.354596, 0.354596, 0.354596, 1 ],
            "baseColorTexture" : {
               "index" : 3,
               "texCoord" : 0
            },
            "metallicFactor" : 0,
            "roughnessFactor" : 0.7448017359246658
         }
      },
      {
         "alphaMode" : "OPAQUE",
         "doubleSided" : true,
         "name" : "Material.007",
         "pbrMetallicRoughness" : {
            "baseColorFactor" : [ 0.64, 0.49783, 0.62812, 1 ],
            "baseColorTexture" : {
               "index" : 4,
               "texCoord" : 0
            },
            "metallicFactor" : 0,
            "roughnessFactor" : 0.7448017359246658
         }
      }
   ],
   "meshes" : [
      {
         "name" : "buffer-0-mesh-0",
         "primitives" : [
            {
               "attributes" : {
                  "NORMAL" : 2,
                  "POSITION" : 1,
                  "TEXCOORD_0" : 3
               },
               "indices" : 0,
               "material" : 0,
               "mode" : 4
            },
            {
               "attributes" : {
                  "NORMAL" : 6,
                  "POSITION" : 5,
                  "TEXCOORD_0" : 7
               },
               "indices" : 4,
               "material" : 1,
               "mode" : 4
            },
            {
               "attributes" : {
                  "NORMAL" : 10,
                  "POSITION" : 9,
                  "TEXCOORD_0" : 11
               },
               "indices" : 8,
               "material" : 2,
               "mode" : 4
            },
            {
               "attributes" : {
                  "NORMAL" : 14,
                  "POSITION" : 13,
                  "TEXCOORD_0" : 15
               },
               "indices" : 12,
               "material" : 3,
               "mode" : 4
            },
            {
               "attributes" : {
                  "NORMAL" : 18,
                  "POSITION" : 17,
                  "TEXCOORD_0" : 19
               },
               "indices" : 16,
               "material" : 4,
               "mode" : 4
            }
         ]
      }
   ],
   "nodes" : [
      {
         "mesh" : 0,
         "name" : "node-0"
      }
   ],
   "samplers" : [
      {
         "name" : "Material.003-sampler",
         "wrapS" : 10497,
         "wrapT" : 10497
      },
      {
         "name" : "Material.004-sampler",
         "wrapS" : 10497,
         "wrapT" : 10497
      },
      {
         "name" : "Material.005-sampler",
         "wrapS" : 10497,
         "wrapT" : 10497
      },
      {
         "name" : "Material.006-sampler",
         "wrapS" : 10497,
         "wrapT" : 10497
      },
      {
         "name" : "Material.007-sampler",
         "wrapS" : 10497,
         "wrapT" : 10497
      }
   ],
   "scenes" : [
      {
         "name" : "scene-0",
         "nodes" : [ 0 ]
      }
   ],
   "textures" : [
      {
         "name" : "Material.003-texture",
         "sampler" : 0,
         "source" : 0
      },
      {
         "name" : "Material.004-texture",
         "sampler" : 1,
         "source" : 1
      },
      {
         "name" : "Material.005-texture",
         "sampler" : 2,
         "source" : 2
      },
      {
         "name" : "Material.006-texture",
         "sampler" : 3,
         "source" : 3
      },
      {
         "name" : "Material.007-texture",
         "sampler" : 4,
         "source" : 4
      }
   ]
}
